<svg class="fontbot" id="fontbot" width="480px" height="320px" viewBox="0 0 261 267" version="1.1" xmlns="http://www.w3.org/2000/svg" xmlns:xlink="http://www.w3.org/1999/xlink">
    <title>fontbot</title>
    <desc>your friendly font finding companion</desc>
    <g id="Ideation" stroke="none" stroke-width="1" fill="none" fill-rule="evenodd">
        <g id="concept1-test-copy-2" transform="translate(-590.000000, -493.000000)">
            <g id="ghost" transform="translate(600.000000, 481.000000)">
                <path d="M152.311967,50.8658086 L254.211506,50.8122817 C273.52849,50.8021346 289.196224,66.4534177 289.206371,85.7704008 C289.206379,85.7857748 289.206377,85.8011487 289.206365,85.8165226 C289.191014,105.16645 273.505866,120.847372 254.155935,120.857511 L152.256679,120.910901 C132.939656,120.921022 117.271909,105.269685 117.261788,85.9526616 C117.26178,85.9373505 117.261782,85.9220393 117.261794,85.9067282 C117.277068,66.55688 132.962115,50.8759729 152.311967,50.8658086 Z" id="right-arm" fill="#FF775F" transform="translate(203.234151, 85.861568) rotate(-45.000000) translate(-203.234151, -85.861568) ">
                  <animateTransform
                      attributeName="transform"
                      begin="0s"
                      dur="4s"
                      type="rotate"
                      from="30 160 160"
                      to="0 160 160"
                      repeatCount="indefinite"
                  />
                </path>


                <path d="M142.75,12.5160875 C177.129726,12.5160875 205,40.3863618 205,74.7660875 L205,278.516088 L80.5,278.516088 L80.5,74.7660875 C80.5,40.3863618 108.370274,12.5160875 142.75,12.5160875 Z" id="Rectangle" fill="#DDD8FF">
                </path>

                <path d="M39.5,138.723295 L109.545045,138.67825 C128.862588,138.665827 144.532622,154.315719 144.545045,173.633263 C144.545055,173.648258 144.545055,173.663254 144.545045,173.67825 C144.532602,193.027937 128.849687,208.710851 109.5,208.723295 L39.454955,208.76834 C20.1374116,208.780763 4.46737781,193.13087 4.45495495,173.813327 C4.45494531,173.798331 4.45494531,173.783335 4.45495495,173.76834 C4.46739848,154.418652 20.1503127,138.735738 39.5,138.723295 Z"
                id="left-arm" fill="#FF775F" transform="translate(74.500000, 173.723295) rotate(-45.000000) translate(-74.500000, -173.723295) ">
                <animateMotion
                        path="M10,50 q60,50 100,0 q60,-50 100,0"
                        begin="0s" dur="4s" repeatCount="indefinite"
                        rotate="auto"
                        />
                </path>


                <g id="eyes" transform="translate(118.000000, 52.000000)" fill="#2B2743">
                    <ellipse id="left-eye" cx="10" cy="10.01287" rx="10" ry="10.01287"></ellipse>
                    <ellipse id="right-eye" cx="42.5" cy="10.01287" rx="10" ry="10.01287"></ellipse>
                </g>
            </g>
        </g>
    </g>
</svg>
